<svg xmlns="http://www.w3.org/2000/svg" width="17.097" height="17.093" viewBox="0 0 17.097 17.093">
  <path id="instagram_1_" data-name="instagram (1)" d="M8.475,35.989a4.382,4.382,0,1,0,4.382,4.382A4.375,4.375,0,0,0,8.475,35.989Zm0,7.232a2.849,2.849,0,1,1,2.849-2.849,2.854,2.854,0,0,1-2.849,2.849Zm5.584-7.411a1.022,1.022,0,1,1-1.022-1.022A1.02,1.02,0,0,1,14.059,35.81Zm2.9,1.037a5.058,5.058,0,0,0-1.381-3.581A5.092,5.092,0,0,0,12,31.885c-1.411-.08-5.641-.08-7.052,0a5.084,5.084,0,0,0-3.581,1.377A5.075,5.075,0,0,0-.015,36.843c-.08,1.411-.08,5.641,0,7.052a5.058,5.058,0,0,0,1.381,3.581,5.1,5.1,0,0,0,3.581,1.381c1.411.08,5.641.08,7.052,0a5.059,5.059,0,0,0,3.581-1.381A5.092,5.092,0,0,0,16.962,43.9C17.042,42.484,17.042,38.258,16.962,36.847ZM15.139,45.41a2.885,2.885,0,0,1-1.625,1.625c-1.125.446-3.8.343-5.038.343s-3.917.1-5.038-.343A2.885,2.885,0,0,1,1.812,45.41c-.446-1.125-.343-3.8-.343-5.038s-.1-3.917.343-5.038a2.885,2.885,0,0,1,1.625-1.625c1.125-.446,3.8-.343,5.038-.343s3.917-.1,5.038.343a2.885,2.885,0,0,1,1.625,1.625c.446,1.125.343,3.8.343,5.038S15.585,44.289,15.139,45.41Z" transform="translate(0.075 -31.825)" fill="#fff"/>
</svg>
