<?xml version="1.0" encoding="UTF-8"?>
<svg xmlns="http://www.w3.org/2000/svg" version="1.1" viewBox="0 0 433.8 80.4">
  <defs>
    <style>
      .cls-1 {
        stroke: #fff;
        stroke-miterlimit: 10;
        stroke-width: 1.1px;
      }

      .cls-1, .cls-2 {
        fill: #fff;
      }
    </style>
  </defs>
  <!-- Generator: Adobe Illustrator 28.6.0, SVG Export Plug-In . SVG Version: 1.2.0 Build 709)  -->
  <g>
    <g id="Capa_1">
      <g>
        <g>
          <path class="cls-1" d="M228.6,15.8h-11.4l-2.5,5.5h-2.3L221.8.8h2.1l9.4,20.5h-2.3l-2.4-5.5ZM227.8,14l-4.9-11-5,11h9.9Z"/>
          <path class="cls-1" d="M242.6,11c0-6,4.6-10.4,10.8-10.4s5.7,1,7.5,3l-1.4,1.4c-1.7-1.7-3.7-2.4-6.1-2.4-5,0-8.7,3.6-8.7,8.5s3.7,8.5,8.7,8.5,4.4-.7,6.1-2.5l1.4,1.4c-1.8,2-4.5,3-7.5,3-6.3,0-10.8-4.5-10.8-10.5Z"/>
          <path class="cls-1" d="M265.5.7h2.2v18.6h12.7l-.9,1.9h-14V.7h0Z"/>
          <path class="cls-1" d="M295.6,15.8h-11.4l-2.5,5.5h-2.3l9.4-20.5h2.1l9.4,20.5h-2.3l-2.4-5.5ZM294.8,14l-4.9-11-4.9,11h9.8Z"/>
          <path class="cls-1" d="M301.8,18.8l.8-1.7c1.5,1.4,4.1,2.5,6.8,2.5s5.5-1.6,5.5-3.6c0-5.6-12.6-2.2-12.6-9.8s2.3-5.6,7.6-5.6,4.7.7,6.4,1.8l-.7,1.7c-1.8-1.1-3.8-1.7-5.6-1.7-3.8,0-5.4,1.7-5.4,3.7,0,5.6,12.6,2.2,12.6,9.7s-2.4,5.6-7.6,5.6-6.3-1.1-7.8-2.6Z"/>
          <path class="cls-1" d="M319.8,18.8l.8-1.7c1.5,1.4,4.1,2.5,6.8,2.5s5.5-1.6,5.5-3.6c0-5.6-12.6-2.2-12.6-9.8s2.3-5.6,7.6-5.6,4.7.7,6.4,1.8l-.7,1.7c-1.8-1.1-3.8-1.7-5.6-1.7-3.8,0-5.4,1.7-5.4,3.7,0,5.6,12.6,2.2,12.6,9.7s-2.4,5.6-7.6,5.6-6.3-1.1-7.8-2.6Z"/>
          <path class="cls-1" d="M346.4,14.2v7.1h-2.1v-7.1l-8.2-13.4h2.3l7,11.5,7-11.5h2.2l-8.2,13.4Z"/>
          <path class="cls-1" d="M228.6,44.5h-11.4l-2.5,5.5h-2.3l9.4-20.5h2.1l9.4,20.5h-2.3l-2.4-5.5ZM227.8,42.7l-4.9-11-4.9,11h9.8Z"/>
          <path class="cls-1" d="M252.8,36.5c0,4.4-3.2,7-8.4,7h-5.5v6.5h-2.2v-20.5h7.7c5.2,0,8.4,2.6,8.4,7ZM250.6,36.5c0-3.3-2.2-5.2-6.3-5.2h-5.4v10.3h5.4c4.1,0,6.3-1.9,6.3-5.1Z"/>
          <path class="cls-1" d="M273.5,36.5c0,4.4-3.2,7-8.4,7h-5.5v6.5h-2.2v-20.5h7.7c5.2,0,8.4,2.6,8.4,7ZM271.3,36.5c0-3.3-2.2-5.2-6.3-5.2h-5.4v10.3h5.4c4.2,0,6.3-1.9,6.3-5.1Z"/>
          <path class="cls-1" d="M292.2,50l-4.7-6.6c-.5,0-1.1,0-1.6,0h-5.5v6.5h-2.2v-20.5h7.7c5.2,0,8.4,2.6,8.4,7s-1.7,5.5-4.7,6.4l5,7h-2.4ZM292.1,36.5c0-3.3-2.2-5.2-6.3-5.2h-5.4v10.3h5.4c4.1,0,6.3-1.9,6.3-5.1Z"/>
          <path class="cls-1" d="M297.6,39.7c0-6,4.6-10.4,10.8-10.4s10.8,4.4,10.8,10.4-4.6,10.4-10.8,10.4-10.8-4.4-10.8-10.4ZM316.9,39.7c0-4.9-3.7-8.5-8.6-8.5s-8.6,3.6-8.6,8.5,3.7,8.5,8.6,8.5,8.6-3.6,8.6-8.5Z"/>
          <path class="cls-1" d="M336.5,44.5h-11.4l-2.5,5.5h-2.3l9.4-20.5h2.1l9.4,20.5h-2.3l-2.4-5.5ZM335.7,42.7l-4.9-11-4.9,11h9.8Z"/>
          <path class="cls-1" d="M342.6,39.7c0-6,4.6-10.4,10.8-10.4s5.7,1,7.5,3l-1.4,1.4c-1.7-1.7-3.7-2.4-6.1-2.4-5,0-8.7,3.6-8.7,8.5s3.7,8.5,8.7,8.5,4.4-.7,6.1-2.5l1.4,1.4c-1.8,2-4.5,3-7.5,3-6.3,0-10.8-4.5-10.8-10.5Z"/>
          <path class="cls-1" d="M382.6,29.5v20.5h-2.1v-9.5h-12.8v9.5h-2.2v-20.5h2.2v9.1h12.8v-9.1h2.1Z"/>
          <path class="cls-1" d="M400.9,31.3h-7.2v-1.9h16.6v1.9h-7.2v18.7h-2.2v-18.7Z"/>
          <path class="cls-1" d="M411.6,39.7c0-6,4.6-10.4,10.8-10.4s10.8,4.4,10.8,10.4-4.6,10.4-10.8,10.4-10.8-4.4-10.8-10.4ZM431,39.7c0-4.9-3.7-8.5-8.6-8.5s-8.6,3.6-8.6,8.5,3.7,8.5,8.6,8.5,8.6-3.6,8.6-8.5Z"/>
          <path class="cls-1" d="M229.8,65.2c0,4.4-3.2,7-8.4,7h-5.5v6.5h-2.2v-20.5h7.7c5.2,0,8.4,2.6,8.4,7ZM227.6,65.2c0-3.3-2.2-5.2-6.3-5.2h-5.4v10.3h5.4c4.1,0,6.3-1.9,6.3-5.1Z"/>
          <path class="cls-1" d="M248.5,78.7l-4.7-6.6c-.5,0-1.1,0-1.6,0h-5.5v6.5h-2.2v-20.5h7.7c5.2,0,8.4,2.6,8.4,7s-1.7,5.5-4.7,6.4l5,7h-2.4ZM248.3,65.2c0-3.3-2.2-5.2-6.3-5.2h-5.4v10.3h5.4c4.2,0,6.3-1.9,6.3-5.1Z"/>
          <path class="cls-1" d="M253.8,68.4c0-6,4.6-10.4,10.8-10.4s10.8,4.4,10.8,10.4-4.6,10.4-10.8,10.4c-6.2,0-10.8-4.4-10.8-10.4ZM273.2,68.4c0-4.9-3.7-8.5-8.6-8.5s-8.6,3.6-8.6,8.5,3.7,8.5,8.6,8.5,8.6-3.6,8.6-8.5Z"/>
          <path class="cls-1" d="M294.6,68.4h2.1v7.8c-1.9,1.7-4.7,2.6-7.5,2.6-6.2,0-10.8-4.4-10.8-10.4s4.6-10.4,10.8-10.4,5.8,1,7.6,3l-1.3,1.4c-1.7-1.7-3.8-2.4-6.2-2.4-5.1,0-8.8,3.6-8.8,8.5s3.7,8.5,8.8,8.5,3.8-.4,5.4-1.6v-7h-.1Z"/>
          <path class="cls-1" d="M316.9,78.7l-4.7-6.6c-.5,0-1.1,0-1.6,0h-5.5v6.5h-2.2v-20.5h7.7c5.2,0,8.4,2.6,8.4,7s-1.7,5.5-4.7,6.4l5,7h-2.4ZM316.7,65.2c0-3.3-2.2-5.2-6.3-5.2h-5.4v10.3h5.4c4.2,0,6.3-1.9,6.3-5.1Z"/>
          <path class="cls-1" d="M338.5,76.8v1.9h-14.5v-20.5h14.1v1.9h-11.9v7.3h10.6v1.8h-10.6v7.6s12.3,0,12.3,0Z"/>
          <path class="cls-1" d="M341.7,76.2l.8-1.7c1.5,1.4,4.1,2.5,6.8,2.5s5.5-1.6,5.5-3.6c0-5.6-12.6-2.2-12.6-9.8s2.3-5.6,7.6-5.6,4.7.7,6.4,1.8l-.7,1.7c-1.8-1.1-3.8-1.7-5.6-1.7-3.8,0-5.4,1.7-5.4,3.7,0,5.6,12.6,2.2,12.6,9.7s-2.4,5.6-7.6,5.6c-3.3.1-6.3-1-7.8-2.6Z"/>
          <path class="cls-1" d="M359.7,76.2l.8-1.7c1.5,1.4,4.1,2.5,6.8,2.5s5.5-1.6,5.5-3.6c0-5.6-12.6-2.2-12.6-9.8s2.3-5.6,7.6-5.6,4.7.7,6.4,1.8l-.7,1.7c-1.8-1.1-3.8-1.7-5.6-1.7-3.8,0-5.4,1.7-5.4,3.7,0,5.6,12.6,2.2,12.6,9.7s-2.4,5.6-7.6,5.6c-3.3.1-6.3-1-7.8-2.6Z"/>
        </g>
        <g>
          <path class="cls-2" d="M171.7,5.7V1.6h29.8v3.9c-8.2,1.5-10.3,4.1-10.3,12.4s-.2,23.2.1,34.8c.3,12.9-8.4,23.2-21,25.2-10,1.6-19.9,1.9-28.7-4.5-6.3-4.6-9.9-10.8-10-18.6-.2-12.6,0-25.2,0-37.8s-2.4-9.9-9.6-11.3V1.6h35.8v3.7c-2.2.7-4.5,1.2-6.6,2.2-2.5,1.2-3.8,3.4-3.8,6.4.1,13.6-.3,27.2.1,40.8.3,9,6,13,14.6,13.9,11.6,1.2,20.3-5.5,20.1-18.5-.2-10.7-.3-21.4,0-32.1.2-8.3-3.4-10.9-10.5-12.3Z"/>
          <path class="cls-2" d="M133.5,73.1v4.6h-28.3v-4.7c5.3-2,6-3.5,3.8-8.8-1-2.4-1.9-4.8-3-7.5h-24.7c-.5,0-1.4,0-1.4,0-1.6,3.6-3.7,7.1-4.3,10.9-.5,3,2.5,4.6,7.3,5v4.9h-25.1c-1.1-3.2,0-5.2,2.9-6.5,4.6-2,4.7-7,6.4-10.8,5.7-12.7,10.9-25.6,16.4-38.4,2.6-6.1,5.6-12.1,7.8-18.4,1-2.8,2.8-1.9,4.5-2.1,1.8-.2,3.1,0,4,2.2,6.1,14.5,12.5,29,18.7,43.5,2.7,6.2,4.9,12.6,7.9,18.7,1.4,2.9,4.1,5.1,6.2,7.7.3,0,.6-.3.9-.4ZM102.1,47.5c-3.2-7.3-6.2-14.1-9.4-21.3-3.3,7.3-6.3,14.2-9.5,21.3h18.9Z"/>
          <path class="cls-2" d="M52.7,72.9v4.7H18.9c0-1.4,0-2.8-.2-4.5,1.5-.4,3.4-.4,4.4-1.4,1.9-1.8,4.5-4.1,4.5-6.3.4-18.1.2-36.3.2-54.3-7.4-1.7-17.7.5-20.3,6.5-.4.9-1,1.7-1.2,2.7-.7,3.8-2.9,4.9-6.3,3.5C.8,16.5,1.5,9.2,2.3,1.7h66.9c.8,7.3,1.6,14.7,2.5,22.2h-5c-1.2-4.5-3-9.4-7.8-11.2-4.6-1.7-9.7-2-15.2-3.1v52.5c0,6.7,2.3,9.5,9,10.8Z"/>
        </g>
      </g>
    </g>
  </g>
</svg>