<?xml version="1.0" encoding="UTF-8"?>
<svg xmlns="http://www.w3.org/2000/svg" version="1.1" viewBox="0 0 308.1 177">
  <defs>
    <style>
      .cls-1 {
        fill-rule: evenodd;
      }
    </style>
  </defs>
  <!-- Generator: Adobe Illustrator 28.6.0, SVG Export Plug-In . SVG Version: 1.2.0 Build 709)  -->
  <g>
    <g id="Capa_1">
      <g id="Capa_2">
        <g id="Capa_1-2">
          <path d="M78.1,109.3c-6.8,0-12.3-5.7-12.2-12.5,0,0,0,0,0,0V13.5h12.1c14.8,0,22,9.5,23.7,20.1h6.8L105.1,0H3.5L0,33.7h6.8c1.7-10.7,8.4-20.1,23.7-20.1h12.1v83.3c0,6.8-5.4,12.4-12.2,12.5,0,0,0,0,0,0-.6,0-1.2,0-1.7,0v6.8h51.2v-6.8c-.6,0-1.2,0-1.7,0Z"/>
          <path class="cls-1" d="M161.1,109.5v6.6h42.5v-6.7c-4.1-.5-7.7-3-9.5-6.8L149.8,0h-8.4l-43.7,102.6c-1.9,3.9-5.7,6.5-9.9,6.8v6.7h38.2v-6.6h-2.1c-5.1,0-12.2-5-9.1-12.7l6.1-13.2h41.6c0,0,5.7,13.2,5.7,13.2,3.6,8.7-2,12.3-7,12.6ZM126,71.1l15.6-35.1,15.4,35.1h-31Z"/>
          <path d="M263,0v6.6h3.2c6.7,0,12.9,5.6,12.9,12.5v60.5c0,14.5-12.2,24.2-27.4,24.2s-27.2-9.8-27.2-24.2V19.1c0-6.8,5.4-12.4,12.2-12.5,0,0,0,0,0,0h4.5V0h-54.7v6.6h2.4c6.4,0,11.8,5.1,12.2,11.5v58.6c0,28.9,21.7,41.6,45.7,41.6s45.7-12.6,45.7-41.6V18.1c.5-6.4,5.8-11.4,12.2-11.5h3.2V0h-45.1Z"/>
          <path class="cls-1" d="M308,168.8c-.5-4.2-4.7-3.3-8.4-1.6s-8.5,6.4-11.4,2.8c-2-3.1,1.8-15.4.1-20.5-2-6.1-11.9-9.1-18.6-6.9-4.1,1.3-7,4-9.6,7.2-3.9,4.8-3.4,10-8.8,16.2-2.5,2.8-4,4.8-7.8,5.9-1.5.6-3,.7-4.6.6-8.6-1.5-10.4-15.4-6.8-22.2,2.5-4.8,13-9.3,17.2-4.4,1,1.3,2,2.5,3.1,3.7.9.8,1.5-.5,1.5-.8,0-3.5-2.2-6.3-5.7-8.1-3.6-1.9-7.9-2-11.6-.1-7.2,3.6-9.8,7.8-12.8,16.3-.7,2-2.6,7.4-3.6,8.8-1.2,1.8-4.4,5.7-6.6,5.2l-1.4-.6c-2.6-1.1-3.7-2-3.9-5.2s-.6-3.3-1.1-6.1c-.4-3,.2-3.7,0-5.9-.2-1.6.2-3.3,1.2-4.6,1.6-1.9,1-4.2-1.7-3.9-.9,0-1.7.4-2.4.9-3,1.6-7.9,17.8-12,21.8-1,1-2.2,1.7-3.5,2.2-2.7.9-4.2,1.7-4.9-1.8-.7-3.8,1.4-9.9.8-15.6-.4-2.7-1.9-5-4.1-6.5-3.2-1.4-6.1-.4-8.8,1.4-2.5-2.2-2.5-4.6-7.5-4.3-3.1.3-6.1,1.7-8.2,4-2.5.2-5.8-7.9-13.6,1.9-4,5.1-3.8,9.3-5.6,16-2.6,9.2-9.8,7.3-10.8,2.5l-1-17.7c0-1.3,0-1.2-.9-2.1-1.8-1.6-3.9-2.8-6.2-3.4-6.7-1.9-13.4.8-19,4.7-1.2.9-3.1,2.8-4.5,2.9-.8,0-1.6-.1-1.5-1.1.3-2.7-.7-5.3-2.7-7.1-4.2-3.9-12.4-1.4-17.8,2.4-2.3,1.6-3.5,4.3-5,6.7-1-2-2.3-3.8-3.9-5.3-.3-.4-1-.5-1.4-.2-.1,0-.2.2-.3.4-.5.9-.1.6-.2,1.6-.1.9-.3,1.7-.5,2.6-.5,2.5,0,4-.3,6.4-.5,3.5-1.8,6.8-3.6,9.8-1.8,2.4-5.8,4.4-9.4,2.6-3-1.6-4.8-4.2-7-6.7,10.1-5.1,14.4-25.3-1-26.1-7.1-.4-12.4,2.9-13.2,9.2s3.2,11,6.4,15.8c-1.3,1.1-1.9,1.2-3,2.5-2.2,2.8-2.8,3.7-5.8,5.9l-3.8,2.3c-6.4,2.7-13.5-3.6-15.3-6.7-2.9-5.1-1.5-14.9,1.4-19.2,2.2-3.3,10.8-8.1,14.6-3.6.2.3.4.6.7.9.2.2.4.2.6,0,.3-.1.3-.2.3-.5,0-9.3-13.6-5.2-17.7-1.6s-4.9,11.2-4.9,16.8c0,2.9.6,3.9,1.4,6.2,2.9,7.2,9.9,11.8,17.6,11.7,3.6-.1,5.1-1.3,7.7-3.1,5.3-3.7,3.5-3.8,10.3-8.6,4.8,3,9.1,10.3,16.5,9.5s8.9-9.7,11-15.4c4.4.7,4.8,15.2,8.7,14.6.8-.1.7-.3.8-.9,1-9.7-6.4-18.3,2.4-24.2,2.1-1.4,4.5-2.2,6.9-2.5.2,0,2.3-.2,2,.4s-1.3.1-1.9,1.9c-.5,1.5-.6,3.1,2.3,4.2l9.3,2.5c-.2,4.6-2.3,8.2-.8,13.2,2.7,8.6,13.2,8.4,19.1,2.6,2.4-2.6,4.7-5.3,6.8-8.1,1.2,2,1,3.9,2.5,6.1,3.8,5.8,13,7.3,16.8,1.1,3.1-5,2.1-14.9,6.9-19.3l4.9-3.4c4.6,3.6-5.9,27.6,1.9,25.6,1.9-.5,1.1-1.2,1.6-3.6,1-4.8,2.3-9.6,3.9-14.2.8-6.1,2-7.6,5.7-8.2,3.9-.6,5.2,3.6,4.2,6.5-.4,1.3.3,1.7.8,1.6,2-.7,3.1-2.9,4.5-4.5s5.1-4.3,6.2-.7,0,9-.6,11.7c-2,10.5,6.7,17.5,15.4,8.8,2.8-2.8,4.5-6.9,7.3-10,0,.1.1.1.2.3l.7,4.2c1.5,10.5,15,12.6,20.2,3.9l2.2-3.9c1.3.6,1.4,1.6,2.2,2.8,3.8,5.2,10.1,10,17,8.3,4.9-1.2,6.1-3.5,9.2-6.5,2.4-2.3,4.2-7.2,5.4-10.4,2.8-7.3,3.1-7.2,8.6-10.9.9-.6,1,.2.3,1.5-2.7,5-10.8,9.7-5.3,21,1.2,2.5,3.4,4.5,6,5.4,5.3,1.8,11.5-2.4,13.9-7l.9,1c5.8,8.1,14.8,3,22.3,0,1.3-.4,1.4-.1,1.2-1.6ZM34.8,157.8c-1.2-1.1-1.2-.5-2.2-1.9-5.4-7.7,2.3-18.7,12.8-13.2,2.5,1.3,1.9,1.6,1.6,4.4-.5,4.5-1.3,6.8-4.5,9.9-6.1,5.9-5.2,3.1-7.7.9ZM120.8,152.9c-2.3,6.8-10,19.4-17.7,19.1-9.2-.3-5.8-17.4,3.8-22.1,2.5-1.2,5.6-4.8,11.2-2.5,3.6,1.4,3.6,2.5,2.6,5.5ZM285.2,153.2c-4.3,21.7-18.2,24.8-19.6,13.7-.6-5.1,5.2-12.8,7.3-15.4,1.5-1.8,4.2-3.9,6.4-3.4.9.2,6.7.5,5.8,5.1Z"/>
          <path class="cls-1" d="M212.3,140.1c1.2-6.1-1.6-6-6.1-5.4.1,1.8.6,3.6,1.5,5.2,1.5.5,3.1.6,4.6.2Z"/>
          <path d="M123,132.1c-2.7-1.4-4.2,2.3-5.5,6.7-.1.3,0,.6.3.8,0,0,0,0,0,0,.8.6,1.8.8,2.8.6.3,0,.5-.3.8-.6,1.2-1.6,2.2-3.3,3.1-5.1.3-.6.3-.9,0-1.1-.7-.1-.9-1-1.3-1.3"/>
        </g>
      </g>
    </g>
  </g>
</svg>