<svg xmlns="http://www.w3.org/2000/svg" width="17.896" height="12.581" viewBox="0 0 17.896 12.581">
  <path id="youtube" d="M32.422,65.969a2.246,2.246,0,0,0-1.582-1.592A53.084,53.084,0,0,0,23.848,64a53.084,53.084,0,0,0-6.992.377,2.246,2.246,0,0,0-1.583,1.592,25.339,25.339,0,0,0,0,8.669A2.212,2.212,0,0,0,16.856,76.2a53.085,53.085,0,0,0,6.992.377A53.085,53.085,0,0,0,30.84,76.2a2.217,2.217,0,0,0,1.583-1.566,25.339,25.339,0,0,0,0-8.669Zm-10.4,7V67.643L26.7,70.3l-4.675,2.66Z" transform="translate(-14.9 -64)" fill="#fff"/>
</svg>
